# AST/ASF file generated using VICON BodyLanguage
# -----------------------------------------------
:version 1.10
:name VICON
:units
  mass 1.0
  length 0.45
  angle deg
:documentation
   .ast/.asf automatically generated from VICON data using
   VICON BodyBuilder and BodyLanguage model FoxedUp or BRILLIANT.MOD
:root
   order TX TY TZ RX RY RZ
   axis XYZ
   position 0 0 0  
   orientation 0 0 0 
:bonedata
  begin
     id 1 
     name lhipjoint
     direction 0.710188 -0.616876 0.339259 
     length 2.5669 
     axis 0 0 0  XYZ
  end
  begin
     id 2 
     name lfemur
     direction 0.34202 -0.939693 0  
     length 7.12796  
     axis 0 0 20  XYZ
    dof rx ry rz
    limits (-160.0 20.0)
           (-70.0 70.0)
           (-60.0 70.0)
  end
  begin
     id 3 
     name ltibia
     direction 0.34202 -0.939693 0   
     length 7.58108   
     axis 0 0 20   XYZ
    dof rx
    limits (-10.0 170.0)
  end
  begin
     id 4 
     name lfoot
     direction 0.0669471 -0.183936 0.980656   
     length 2.17365   
     axis -90 7.62852e-016 20   XYZ
    dof rx rz
    limits (-45.0 90.0)
           (-70.0 20.0)
  end
  begin
     id 5 
     name ltoes
     direction 1.53508e-011 -4.21705e-011 1   
     length 1.09427   
     axis -90 7.62852e-016 20   XYZ
    dof rx
    limits (-90.0 20.0)
  end
  begin
     id 6 
     name rhipjoint
     direction -0.700191 -0.625589 0.34405   
     length 2.53115  
     axis 0 0 0  XYZ 
  end
  begin
     id 7 
     name rfemur
     direction -0.34202 -0.939693 0   
     length 7.33006   
     axis 0 0 -20   XYZ
    dof rx ry rz
    limits (-160.0 20.0)
           (-70.0 70.0)
           (-70.0 60.0)
  end
  begin
     id 8 
     name rtibia
     direction -0.34202 -0.939693 0   
     length 7.64926   
     axis 0 0 -20   XYZ
    dof rx
    limits (-10.0 170.0)
 end
 begin
     id 9 
     name rfoot
     direction -0.0688927 -0.189281 0.979503   
     length 2.20493  
     axis -90 -7.62852e-016 -20   XYZ
    dof rx rz
    limits (-45.0 90.0)
           (-20.0 70.0)
  end
  begin
     id 10 
     name rtoes
     direction -1.53567e-011 -4.21933e-011 1   
     length 1.10919   
     axis -90 -7.62852e-016 -20   XYZ
    dof rx
    limits (-90.0 20.0)
  end
  begin
     id 11 
     name lowerback
     direction -0.0167868 0.989873 -0.140959   
     length 2.14596   
     axis 0 0 0   XYZ
    dof rx ry rz
    limits (-20.0 45.0)
           (-30.0 30.0)
           (-30.0 30.0)
  end
  begin
     id 12 
     name upperback
     direction 0.0129109 0.998033 0.0613525   
     length 2.10457   
     axis 0 0 0   XYZ
    dof rx ry rz
    limits (-20.0 45.0)
           (-30.0 30.0)
           (-30.0 30.0)
  end
  begin
     id 13 
     name thorax
     direction 0.0177047 0.991119 0.131797   
     length 2.17652   
     axis 0 0 0   XYZ
    dof rx ry rz
    limits (-20.0 45.0)
           (-30.0 30.0)
           (-30.0 30.0)
  end
  begin
     id 14 
     name lowerneck
     direction -0.0336893 0.997548 0.0613464   
     length 1.8912   
     axis 0 0 0   XYZ
    dof rx ry rz
    limits (-20.0 45.0)
           (-30.0 30.0)
           (-30.0 30.0)
  end
  begin
     id 15 
     name upperneck
     direction 0.0435909 0.997179 -0.0611028   
     length 1.8829   
     axis 0 0 0   XYZ
    dof rx ry rz
    limits (-20.0 45.0)
           (-30.0 30.0)
           (-30.0 30.0)
  end
  begin
     id 16
     name head
     direction 0.0175076 0.999444 -0.0283782  
     length 1.93197  
     axis 0 0 0   XYZ
    dof rx ry rz
    limits (-20.0 45.0)
           (-30.0 30.0)
           (-30.0 30.0)
  end
  begin
     id 17 
     name lclavicle
     direction 0.919164 0.389875 0.0559876  
     length 3.60004  
     axis 0 0 0   XYZ
    dof ry rz
    limits (-20.0 10.0)
           (0.0 20.0)
  end
  begin
     id 18 
     name lhumerus
     direction 1 -4.48958e-011 6.89191e-027   
     length 5.43301   
     axis 180 -30 -90   XYZ
    dof rx ry rz
    limits (-60.0 90.0)
           (-90.0 90.0)
           (-90.0 90.0)
  end
  begin
     id 19
     name lradius
     direction 1 -4.4897e-011 3.24727e-027   
     length 3.15936   
     axis 180 -30 -90   XYZ
    dof rx
    limits (-10.0 170.0)
  end
  begin
     id 20
     name lwrist
     direction 1 -4.4897e-011 9.00228e-027   
     length 1.57968   
     axis -6.29373e-015 90 90   XYZ
    dof ry
    limits (-180.0 0.0)
 end
  begin
     id 21 
     name lhand
     direction 1 -4.48968e-011 1.80042e-026   
     length 0.712827   
     axis -1.14882e-014 90 90   XYZ
    dof rx rz
    limits (-90.0 90.0)
           (-45.0 45.0)
  end
  begin
     id 22 
     name lfingers
     direction 1 -4.49019e-011 3.60267e-026   
     length 0.574699   
     axis -2.29769e-014 90 90   XYZ
    dof rx
    limits (0.0 90.0)
  end
  begin
     id 23
     name lthumb
     direction 0.707107 -6.3498e-011 0.707107   
     length 0.825157   
     axis -90 45 5.37419e-014   XYZ
    dof rx rz
    limits (-45.0 45.0)
           (-45.0 45.0)
  end
  begin
     id 24 
     name rclavicle
     direction -0.890334 0.455305 -0.00132111   
     length 3.51494  
     axis 0 0 0   XYZ 
    dof ry rz
    limits (-10.0 20.0)
           (-20.0 0.0)
  end
  begin
     id 25 
     name rhumerus
     direction -1 -4.48967e-011 5.07175e-028  
     length 5.34194   
     axis 180 30 90   XYZ
    dof rx ry rz
    limits (-90.0 60.0)
           (-90.0 90.0)
           (-90.0 90.0)
  end
  begin
     id 26 
     name rradius
     direction -1 -4.48955e-011 3.30467e-027   
     length 3.19351   
     axis 180 30 90   XYZ
    dof rx
    limits (-10.0 170.0)
  end
  begin
     id 27 
     name rwrist
     direction -1 -4.48968e-011 9.00208e-027   
     length 1.59676   
     axis -6.29373e-015 -90 -90   XYZ
    dof ry
    limits (-180.0 0.0)
  end
  begin
     id 28
     name rhand
     direction -1 -4.49e-011 1.80099e-026   
     length 0.743862   
     axis -1.14882e-014 -90 -90   XYZ
    dof rx rz
    limits (-90.0 90.0)
           (-45.0 45.0)
  end
  begin
     id 29
     name rfingers
     direction -1 -4.49009e-011 3.6023e-026   
     length 0.599721   
     axis -2.29769e-014 -90 -90   XYZ
    dof rx
    limits (0.0 90.0)
  end
  begin
     id 30
     name rthumb
     direction -0.707107 -6.35025e-011 0.707107   
     length 0.861083   
     axis -90 -45 -5.37419e-014   XYZ
    dof rx rz
    limits (-45.0 45.0)
           (-45.0 45.0)
  end
:hierarchy
  begin
    root lhipjoint rhipjoint lowerback
    lhipjoint lfemur
    lfemur ltibia
    ltibia lfoot
    lfoot ltoes
    rhipjoint rfemur
    rfemur rtibia
    rtibia rfoot
    rfoot rtoes
    lowerback upperback
    upperback thorax
    thorax lowerneck lclavicle rclavicle
    lowerneck upperneck
    upperneck head
    lclavicle lhumerus
    lhumerus lradius
    lradius lwrist
    lwrist lhand lthumb
    lhand lfingers
    rclavicle rhumerus
    rhumerus rradius
    rradius rwrist
    rwrist rhand rthumb
    rhand rfingers
  end

#!OML:ASF H:\Martial Arts Walks\Project 1\Capture day 1\Session 1\male.ASF
:FULLY-SPECIFIED
:DEGREES
77
root -0.785483 11.5224 11.3407 8.99113 1.57872 -1.84059
lowerback 18.5841 1.64486 -2.63521
upperback -3.58424 1.71524 1.01124
thorax -14.7049 1.07272 2.11781
lowerneck -7.41797 -3.23711 -5.84554
upperneck 4.52136 -4.09244 5.51303
head 3.06708 -1.94955 2.66317
rclavicle 5.85483e-015 1.31695e-015
rhumerus 39.3343 -2.56361 -63.4901
rradius 94.6465
rwrist 20.9389
rhand 1.31658 -14.0157
rfingers 7.12502
rthumb 26.8508 -42.1291
lclavicle 5.85483e-015 1.31695e-015
lhumerus 41.8911 -4.79886 87.0684
lradius 88.0997
lwrist -35.7532
lhand -10.8857 2.18481
lfingers 7.12502
lthumb 15.1306 31.6117
rfemur -72.6136 -5.71785 21.2288
rtibia 107.917
rfoot -33.4354 -17.7678
rtoes -14.3797
lfemur -73.2854 11.3974 -18.1732
ltibia 107.079
lfoot -31.6831 16.8119
ltoes -14.2096
78
root -0.786468 11.5231 11.3393 9.00005 1.59243 -1.83012
lowerback 18.5888 1.63782 -2.63074
upperback -3.58283 1.70661 1.01037
thorax -14.7054 1.06832 2.11689
lowerneck -7.37034 -3.23169 -5.84826
upperneck 4.42336 -4.08424 5.51597
head 3.02404 -1.94604 2.66485
rclavicle 2.59662e-015 -6.33626e-016
rhumerus 39.3369 -2.56334 -63.4801
rradius 94.6549
rwrist 20.928
rhand 1.34658 -14.015
rfingers 7.12502
rthumb 26.8795 -42.124
lclavicle 2.59662e-015 -6.33626e-016
lhumerus 41.894 -4.79823 87.0482
lradius 88.0945
lwrist -35.7518
lhand -10.8984 2.19942
lfingers 7.12502
lthumb 15.1184 31.6273
rfemur -72.628 -5.75109 21.2292
rtibia 107.914
rfoot -33.4391 -17.7405
rtoes -14.3517
lfemur -73.3005 11.3956 -18.1862
ltibia 107.067
lfoot -31.6755 16.7887
ltoes -14.1868
79
root -0.787488 11.5239 11.3376 9.00835 1.60477 -1.81979
lowerback 18.5935 1.63208 -2.62632
upperback -3.58016 1.69972 1.0094
thorax -14.7043 1.06468 2.11537
lowerneck -7.32756 -3.22693 -5.84746
upperneck 4.33031 -4.077 5.51574
head 2.98352 -1.94297 2.66473
rclavicle 3.38555e-016 -8.01351e-015
rhumerus 39.3409 -2.56823 -63.4698
rradius 94.6603
rwrist 20.9134
rhand 1.35671 -14.0114
rfingers 7.12502
rthumb 26.8892 -42.1189
lclavicle 3.38555e-016 -8.01351e-015
lhumerus 41.8982 -4.79817 87.0343
lradius 88.085
lwrist -35.7471
lhand -10.8976 2.21025
lfingers 7.12502
lthumb 15.1192 31.638
rfemur -72.6407 -5.77694 21.2293
rtibia 107.911
rfoot -33.4374 -17.726
rtoes -14.346
lfemur -73.3161 11.3947 -18.1995
ltibia 107.055
lfoot -31.6617 16.7723
ltoes -14.1765
80
root -0.788544 11.5248 11.3358 9.01364 1.61604 -1.81264
lowerback 18.5996 1.6274 -2.61969
upperback -3.57584 1.69493 1.00983
thorax -14.7024 1.06186 2.11352
lowerneck -7.28542 -3.22188 -5.84903
upperneck 4.24005 -4.06943 5.51903
head 2.94433 -1.93966 2.66631
rclavicle -1.33714e-014 -5.51627e-015
rhumerus 39.3471 -2.57697 -63.4592
rradius 94.6603
rwrist 20.8996
rhand 1.347 -14.0077
rfingers 7.12502
rthumb 26.8799 -42.1166
lclavicle -1.33714e-014 -5.51627e-015
lhumerus 41.9031 -4.79752 87.0279
lradius 88.0732
lwrist -35.7379
lhand -10.8744 2.21553
lfingers 7.12502
lthumb 15.1415 31.6416
rfemur -72.6509 -5.79206 21.2282
rtibia 107.904
rfoot -33.4329 -17.7073
rtoes -14.3256
lfemur -73.3297 11.3958 -18.2093
ltibia 107.042
lfoot -31.6439 16.7622
ltoes -14.1699
81
root -0.78962 11.5252 11.334 9.01643 1.62512 -1.80359
lowerback 18.6069 1.6238 -2.61758
upperback -3.57038 1.69059 1.01121
thorax -14.7 1.05968 2.11517
lowerneck -7.24768 -3.21502 -5.85009
upperneck 4.15727 -4.05943 5.52112
head 2.90836 -1.93512 2.66753
rclavicle 7.43889e-016 1.08835e-014
rhumerus 39.3567 -2.58597 -63.4499
rradius 94.6545
rwrist 20.8894
rhand 1.31666 -14.0029
rfingers 7.12502
rthumb 26.8509 -42.1163
lclavicle 7.43889e-016 1.08835e-014
lhumerus 41.909 -4.79268 87.0288
lradius 88.0579
lwrist -35.7283
lhand -10.8356 2.21633
lfingers 7.12502
lthumb 15.1788 31.6396
rfemur -72.6603 -5.80139 21.2247
rtibia 107.901
rfoot -33.4276 -17.6996
rtoes -14.3263
lfemur -73.3417 11.3974 -18.2206
ltibia 107.034
lfoot -31.6276 16.7566
ltoes -14.1575
